<?xml version="1.0" standalone="no"?>
<!DOCTYPE svg PUBLIC "-//W3C//DTD SVG 1.0//EN" "http://www.w3.org/TR/2001/REC-SVG-20010904/DTD/svg10.dtd">
<svg xmlns="http://www.w3.org/2000/svg" xmlns:xlink="http://www.w3.org/1999/xlink" id="body_1" width="171" height="166">

<g transform="matrix(0.75 0 0 0.75113124 0 0)">
    <path transform="matrix(1 0 0 1 0 0)"  d="M0 0C 75.24 0 150.48 0 228 0C 228 72.93 228 145.86 228 221C 152.76 221 77.52 221 0 221C 0 148.07 0 75.14 0 0z" stroke="none" fill="#326CE5" fill-rule="nonzero" />
    <path transform="matrix(1 0 0 1 0 0)"  d="M0 0C 75.24 0 150.48 0 228 0C 228 72.93 228 145.86 228 221C 152.76 221 77.52 221 0 221C 0 148.07 0 75.14 0 0zM104.95703 15.605469C 103.81476 16.1704 102.67249 16.735332 101.495605 17.317383C 100.26788 17.94071 99.04018 18.564083 97.8125 19.1875C 95.87249 20.153446 93.92997 21.114202 91.98712 22.074432C 90.65302 22.733875 89.31966 23.3948 87.987 24.05716C 81.18077 27.431765 74.282974 30.58973 67.375 33.75C 59.19311 37.531963 51.032707 41.346462 43 45.4375C 42.23478 45.814228 41.46956 46.190956 40.681152 46.5791C 39.982 46.943584 39.28284 47.308067 38.5625 47.683594C 37.965664 47.988377 37.368828 48.29316 36.753906 48.607178C 32.158375 52.256607 30.453419 56.990707 29.324219 62.566406C 29.05706 63.84282 28.789902 65.11923 28.514648 66.434326C 28.379902 67.107086 28.245153 67.77985 28.106323 68.47299C 27.387772 72.057846 26.626305 75.63367 25.871094 79.21094C 25.717987 79.94195 25.56488 80.672966 25.407135 81.42613C 23.590206 90.05259 21.494946 98.60614 19.397217 107.16821C 18.019112 112.793594 16.650211 118.42067 15.324219 124.05859C 15.080183 125.09428 14.836147 126.12996 14.584717 127.19702C 13.300605 133.35272 13.398663 137.50298 16.718018 143.06836C 19.070955 146.61368 21.814241 149.82027 24.5625 153.0625C 25.825514 154.57314 27.087217 156.08487 28.347656 157.59766C 28.969145 158.3429 29.590635 159.08813 30.230957 159.85596C 32.710323 162.8609 35.11129 165.92284 37.5 169C 42.223953 175.07025 47.091164 181.01462 51.999756 186.93628C 55.83679 191.56831 59.594852 196.24501 63.253906 201.01953C 65.78523 203.89062 68.567184 206.2836 72 208C 74.61733 208.11388 77.20868 208.16783 79.826904 208.177C 80.635254 208.18358 81.4436 208.19014 82.27644 208.19691C 84.95904 208.21667 87.64157 208.22832 90.32422 208.23828C 91.24038 208.24236 92.15655 208.24643 93.10047 208.25063C 97.95199 208.2715 102.803474 208.2858 107.65503 208.29517C 112.66088 208.30621 117.66629 208.3406 122.67198 208.38034C 126.52481 208.40652 130.37753 208.41486 134.23045 208.41844C 136.07518 208.42331 137.9199 208.43492 139.76456 208.45349C 142.35211 208.4779 144.9385 208.47691 147.52612 208.46997C 148.28328 208.48279 149.04044 208.49559 149.82053 208.50879C 156.05124 208.44815 160.29245 206.54727 164.90527 202.20752C 165.38513 201.60536 165.86497 201.00322 166.35938 200.38281C 166.91182 199.70082 167.46426 199.01883 168.03345 198.31616C 168.59991 197.59308 169.16637 196.87 169.75 196.125C 170.35707 195.36905 170.96414 194.6131 171.5896 193.83423C 173.40582 191.56593 175.20534 189.28537 177 187C 177.4958 186.37175 177.99161 185.74348 178.50244 185.09619C 180.30295 182.81445 182.1001 180.53021 183.88794 178.23853C 187.35063 173.802 190.88167 169.42464 194.4375 165.0625C 198.8912 159.59627 203.335 154.12257 207.75 148.625C 208.52042 147.66992 208.52042 147.66992 209.3064 146.69556C 214.45865 140.26779 214.5318 136.15048 214 128C 213.22906 123.51334 212.10236 119.14887 210.9375 114.75C 210.2909 112.20261 209.64726 109.65465 209.00781 107.10547C 208.84213 106.449974 208.67645 105.79448 208.50575 105.119125C 206.42372 96.81952 204.6569 88.44916 202.8945 80.07678C 201.43385 73.1419 199.88593 66.23143 198.10547 59.371094C 197.68044 57.712917 197.68044 57.712917 197.24683 56.02124C 194.85284 50.22028 190.66579 47.511982 185.15234 44.90625C 184.00339 44.35727 182.85443 43.808292 181.67065 43.242676C 180.42639 42.661533 179.18199 42.08065 177.9375 41.5C 176.64519 40.8874 175.35329 40.27394 174.06177 39.659668C 163.96135 34.86871 153.81554 30.169954 143.65723 25.503174C 138.70448 23.221632 133.7767 20.92501 128.9375 18.410156C 128.20378 18.029078 127.47006 17.647999 126.71411 17.255371C 124.86799 16.282606 123.03295 15.288892 121.19922 14.292969C 115.216446 11.875023 110.59312 12.766314 104.95703 15.605469z" stroke="none" fill="#FEFEFE" fill-rule="nonzero" />
    <path transform="matrix(1 0 0 1 114.5625 38.8125)"  d="M0 0C 2.4375 0.1875 2.4375 0.1875 3.4375 1.1875C 3.5940502 2.6738899 3.6881695 4.166991 3.7539062 5.6601562C 3.7958007 6.5592775 3.8376954 7.4583983 3.8808594 8.384766C 3.9201758 9.330293 3.9594922 10.275821 4 11.25C 4.043184 12.199394 4.086367 13.148789 4.1308594 14.126953C 4.237293 16.480314 4.33931 18.833784 4.4375 21.1875C 5.646641 21.317696 6.855781 21.447891 8.1015625 21.582031C 17.867023 22.812918 28.619205 27.179722 35.523438 34.35547C 37.383644 36.51351 37.383644 36.51351 40.625 36.5C 45.44982 35.576538 48.18062 31.597197 51.226562 28.023438C 53.4375 26.1875 53.4375 26.1875 56.148438 26.351562C 58.4375 27.1875 58.4375 27.1875 59.4375 28.1875C 59.8125 30.5 59.8125 30.5 59.4375 33.1875C 56.91997 35.63098 54.194252 37.3449 51.25 39.25C 48.258377 41.054794 48.258377 41.054794 46.4375 44.1875C 46.985367 48.73674 49.470848 53.05197 51.28125 57.214844C 53.54397 63.03217 53.563225 68.33808 53.5 74.5C 53.495487 75.33596 53.49098 76.17191 53.48633 77.0332C 53.474606 79.08466 53.456673 81.13609 53.4375 83.1875C 58.391094 85.00943 62.717705 85.52178 67.94922 85.74609C 70.80103 86.25199 71.77685 86.840065 73.4375 89.1875C 73.01645 93.60855 73.01645 93.60855 71.4375 95.1875C 67.62538 95.55056 65.52494 95.22725 62 93.625C 57.7544 91.911865 55.817223 91.93825 51.4375 93.1875C 49.35144 96.04608 49.35144 96.04608 48 99.6875C 43.864 108.98995 38.15024 115.7856 29.4375 121.1875C 28.7775 121.1875 28.1175 121.1875 27.4375 121.1875C 28.749138 125.659 29.967531 129.50269 32.625 133.375C 34.72006 136.62595 34.87879 138.3924 34.4375 142.1875C 33.4375 143.1875 33.4375 143.1875 31.0625 143.5C 28.4375 143.1875 28.4375 143.1875 26.894531 141.48828C 24.882807 138.31158 23.811666 134.97186 22.597656 131.42969C 21.589216 129.13129 21.589216 129.13129 19.746094 127.75781C 16.932228 127.062675 15.200281 127.76045 12.50293 128.6543C 8.430163 129.7057 4.242847 129.47333 0.0625 129.4375C -0.8321094 129.44524 -1.7267188 129.45297 -2.6484375 129.46094C -7.9039097 129.44566 -12.603131 128.92174 -17.674316 127.518555C -19.778526 126.995445 -19.778526 126.995445 -22.5625 128.1875C -23.483349 130.35046 -23.483349 130.35046 -24.0625 132.9375C -26.131855 140.3829 -26.131855 140.3829 -28.5625 143.1875C -31.125 143.625 -31.125 143.625 -33.5625 143.1875C -34.5525 142.1975 -34.5525 142.1975 -35.5625 141.1875C -35.221172 137.4577 -33.96455 134.88992 -32 131.75C -30.523146 129.11432 -29.50752 126.99114 -28.6875 124.0625C -29.951584 119.90908 -32.668434 118.50069 -36.117188 116.01953C -43.66611 110.36387 -47.950085 102.78848 -51.5625 94.1875C -51.5625 93.5275 -51.5625 92.8675 -51.5625 92.1875C -55.768604 91.92462 -58.67327 92.07885 -62.5625 93.75C -66.65457 95.46036 -69.27919 95.16909 -73.5625 94.1875C -73.75 91.3125 -73.75 91.3125 -73.5625 88.1875C -70.180405 85.93277 -68.05544 85.66009 -64.0625 85.125C -60.729397 84.67083 -57.755436 84.25181 -54.5625 83.1875C -54.608906 82.02734 -54.65531 80.86719 -54.703125 79.671875C -55.083588 66.08454 -52.774418 55.89209 -45.5625 44.1875C -46.2225 44.1875 -46.8825 44.1875 -47.5625 44.1875C -47.8925 43.1975 -48.2225 42.2075 -48.5625 41.1875C -51.33005 39.339546 -54.196274 37.736996 -57.09375 36.101562C -59.5625 34.1875 -59.5625 34.1875 -60.53125 31.585938C -60.54156 30.794453 -60.551876 30.002968 -60.5625 29.1875C -59.9025 28.5275 -59.2425 27.8675 -58.5625 27.1875C -55.1875 27.25 -55.1875 27.25 -51.5625 28.1875C -49.375 30.5625 -49.375 30.5625 -47.5625 33.1875C -45.329357 35.27657 -44.20663 36.11535 -41.15625 36.45703C -37.97585 36.126537 -37.193047 35.32914 -35 33.0625C -26.602478 25.236454 -15.982777 21.026651 -4.5625 21.1875C -4.5729737 20.622408 -4.5834475 20.057314 -4.5942383 19.475098C -4.635748 16.920944 -4.6618094 14.36686 -4.6875 11.8125C -4.704258 10.923047 -4.7210155 10.033594 -4.7382812 9.1171875C -4.7447267 8.266406 -4.751172 7.415625 -4.7578125 6.5390625C -4.768286 5.75354 -4.77876 4.9680176 -4.789551 4.1586914C -4.41381 0.89661485 -3.1520703 0.2306393 0 0z" stroke="none" fill="#FBFCFE" fill-rule="nonzero" />
    <path transform="matrix(1 0 0 1 109 71)"  d="M0 0C 0.2429057 17.219316 0.2429057 17.219316 -1 23C -3 25 -3 25 -5.3757324 25.289062C -8.394928 24.9565 -9.614557 24.227663 -11.988281 22.375C -12.694043 21.833593 -13.399805 21.292187 -14.126953 20.734375C -14.848184 20.162031 -15.569414 19.589687 -16.3125 19C -17.053066 18.427656 -17.793633 17.855312 -18.55664 17.265625C -20.37969 15.854232 -22.19339 14.432336 -24 13C -21.219969 6.934123 -15.454803 4.4210124 -9.4453125 1.9492188C -6.1339726 0.80382085 -3.5254598 0 0 0z" stroke="none" fill="#346EE5" fill-rule="nonzero" />
    <path transform="matrix(1 0 0 1 77 92)"  d="M0 0C 4.471235 2.4465249 8.109835 5.484685 11.875 8.875C 12.48086 9.391914 13.086719 9.908828 13.7109375 10.441406C 15.4296875 11.9921875 15.4296875 11.9921875 18 15C 17.660645 17.687988 17.660645 17.687988 17 20C 13.731204 21.006744 10.459653 22.004225 7.1875 23C 6.2587304 23.286171 5.329961 23.572344 4.373047 23.867188C 3.480371 24.13789 2.5876954 24.408594 1.6679688 24.6875C 0.8457886 24.938868 0.0236084 25.190235 -0.8234863 25.449219C -3 26 -3 26 -6 26C -6.6073885 16.332397 -5.455727 8.183591 0 0z" stroke="none" fill="#336DE5" fill-rule="nonzero" />
    <path transform="matrix(1 0 0 1 131 125)"  d="M0 0C 1.7878916 0.12492066 3.570564 0.32599005 5.3476562 0.55859375C 6.967041 0.76645505 6.967041 0.76645505 8.619141 0.9785156C 9.755449 1.1299804 10.891758 1.2814453 12.0625 1.4375C 13.202676 1.5850977 14.342852 1.7326953 15.517578 1.8847656C 18.34573 2.2515972 21.173113 2.6235654 24 3C 21.172869 12.207995 15.932668 19.44356 8 25C 7.34 25 6.68 25 6 25C 4.624078 21.946823 3.2782638 18.88126 1.9375 15.8125C 1.5475585 14.948184 1.1576172 14.083867 0.7558594 13.193359C 0.39169922 12.352246 0.02753906 11.511133 -0.34765625 10.644531C -0.6880493 9.87472 -1.0284424 9.104907 -1.3791504 8.311768C -2.1291027 5.519279 -1.8064288 3.7522674 -1 1C -0.67 0.67 -0.34 0.34 0 0z" stroke="none" fill="#326DE5" fill-rule="nonzero" />
    <path transform="matrix(1 0 0 1 152 92)"  d="M0 0C 4.5423093 8.857503 5.659308 16.095732 5 26C -14.617022 22.382978 -14.617022 22.382978 -18 19C -18.414062 16.65625 -18.414062 16.65625 -18 14C -16.023438 11.71875 -16.023438 11.71875 -13.375 9.5C -12.464922 8.727852 -11.554844 7.9557033 -10.6171875 7.1601562C -9.753515 6.4473047 -8.889844 5.734453 -8 5C -7.363203 4.441836 -6.726406 3.883672 -6.0703125 3.3085938C -2.280983 0 -2.280983 0 0 0z" stroke="none" fill="#336DE5" fill-rule="nonzero" />
    <path transform="matrix(1 0 0 1 112 134)"  d="M0 0C 2.171875 -0.0234375 2.171875 -0.0234375 5 1C 7.1156297 3.5818114 8.65455 6.451599 10.25 9.375C 10.696015 10.156172 11.142032 10.937344 11.6015625 11.7421875C 13.338474 14.815994 14.880592 17.641777 16 21C 11.7016535 23.11147 7.761426 23.302355 3.0625 23.25C 2.0270605 23.261602 2.0270605 23.261602 0.9707031 23.273438C -3.3942 23.256887 -6.945155 22.599094 -11 21C -9.300349 16.265259 -6.8634095 12.038329 -4.375 7.6875C -3.9547656 6.9469337 -3.5345314 6.206367 -3.1015625 5.4433594C -2.0705152 3.6273098 -1.0356395 1.8134347 0 0z" stroke="none" fill="#326CE5" fill-rule="nonzero" />
    <path transform="matrix(1 0 0 1 99 126)"  d="M0 0C 0.48703113 5.6549726 -1.1912032 9.729973 -3.375 14.8125C -3.6921093 15.587872 -4.0092187 16.363243 -4.3359375 17.16211C -6.7310786 22.86554 -6.7310786 22.86554 -9 24C -16.413523 17.978865 -22.179686 12.29122 -25 3C -22.937716 2.5199075 -20.875162 2.0409646 -18.8125 1.5625C -17.089668 1.1622461 -17.089668 1.1622461 -15.332031 0.75390625C -14.232461 0.5051172 -13.132891 0.2563281 -12 0C -11.113125 -0.20625 -10.22625 -0.4125 -9.3125 -0.625C -6.0805645 -1.1490977 -3.2014947 -0.56496966 0 0z" stroke="none" fill="#326CE5" fill-rule="nonzero" />
    <path transform="matrix(1 0 0 1 120 72)"  d="M0 0C 9.183767 0.44437584 17.275215 3.4993744 24 10C 24 10.66 24 11.32 24 12C 21.459955 14.2783785 18.59932 16.160782 15.8125 18.125C 15.043574 18.68832 14.274649 19.25164 13.482422 19.832031C 12.731543 20.364414 11.980664 20.896797 11.207031 21.445312C 10.5210085 21.935318 9.834986 22.425322 9.128174 22.930176C 6.569952 24.216183 4.828097 24.273232 2 24C -0.71485674 21.285143 -0.00098708 13.941392 -0.0625 10.2890625C -0.0625 6.858792 -0.04391142 3.4299698 0 0z" stroke="none" fill="#316CE5" fill-rule="nonzero" />
    <path transform="matrix(1 0 0 1 114.5625 106.4375)"  d="M0 0C 3.4375 0.5625 3.4375 0.5625 5.375 2.1875C 6.7212334 5.1967278 6.7849536 7.2964373 6.4375 10.5625C 4.4375 13.5625 4.4375 13.5625 1.0625 14.375C -2.5625 14.5625 -2.5625 14.5625 -4.9375 14.0625C -6.5625 12.5625 -6.5625 12.5625 -7.5625 9.25C -7.5625 5.5625 -7.5625 5.5625 -6.0625 2.625C -3.5625 0.5625 -3.5625 0.5625 0 0z" stroke="none" fill="#326CE5" fill-rule="nonzero" />
</g>
</svg>
